<svg xmlns="http://www.w3.org/2000/svg" viewBox="0 0 171.348 91.016" fill="#fff" xmlns:v="https://vecta.io/nano"><path d="M92.525 46.537c-.825-.729-1.875-1.083-3.21-1.083h-5.481V57.96h1.889v-4.563h3.592c1.343 0 2.394-.361 3.212-1.103.802-.726 1.209-1.691 1.209-2.869 0-1.171-.406-2.141-1.211-2.889zm-3.21 5.115h-3.592v-4.453h3.592c1.549 0 2.55.874 2.55 2.227s-1.001 2.226-2.55 2.226zm13.653.81c0 1.188-.313 2.145-.93 2.845-.624.708-1.418 1.052-2.429 1.052-1.035 0-1.841-.344-2.465-1.052-.629-.714-.948-1.671-.948-2.845v-7.008h-1.889v7.008c0 1.694.493 3.084 1.461 4.127.953 1.065 2.245 1.605 3.84 1.605 1.583 0 2.869-.54 3.82-1.604.947-1.039 1.427-2.428 1.427-4.128v-7.008h-1.889v7.008zm12.091 2.232l-7.522-9.24h-1.568V57.96h1.889v-9.138l7.523 9.138h1.567V45.454h-1.889zm12.004-9.24h-6.398v1.745h4.509v6.143c0 .906-.257 1.637-.785 2.234-.51.575-1.169.855-2.016.855-1.547 0-2.595-1.004-2.803-2.686l-.032-.258-1.812.411.032.215c.365 2.479 2.177 4.081 4.616 4.081 1.39 0 2.535-.459 3.405-1.368.853-.91 1.285-2.082 1.285-3.484v-7.888zm5.164 0l-5.6 12.506h2.042l1.347-3.054h6.036l1.347 3.054h2.042l-5.6-12.506h-1.616zm3.063 7.707h-4.509l2.262-5.128 2.247 5.128zm12.682-1.617c.888-.461 1.494-1.5 1.494-2.693 0-2.063-1.495-3.397-3.81-3.397h-5.768V57.96h6.002c2.45 0 3.972-1.343 3.972-3.504 0-1.386-.734-2.479-1.889-2.912zm-2.334-.7h-3.861v-3.698h3.754c1.307 0 2.119.681 2.119 1.777 0 1.167-.789 1.921-2.011 1.921zm-3.861 1.619h4.005c1.32 0 2.173.733 2.173 1.867 0 1.196-.839 1.939-2.19 1.939h-3.987v-3.806zM94.032 67.157c-.594 1.849-2.103 2.909-4.142 2.909a4.34 4.34 0 0 1-3.246-1.367 4.52 4.52 0 0 1-1.334-3.321c0-1.313.449-2.437 1.336-3.34.86-.894 1.952-1.347 3.244-1.347 2.035 0 3.583 1.08 4.141 2.889l.068.221 1.818-.526-.072-.229a5.79 5.79 0 0 0-2.193-3.033c-1.077-.743-2.343-1.119-3.762-1.119-1.805 0-3.354.634-4.603 1.883s-1.883 2.798-1.883 4.603.634 3.354 1.883 4.603 2.798 1.883 4.603 1.883c1.447 0 2.715-.384 3.766-1.14 1.064-.766 1.801-1.81 2.19-3.105l.072-.239-1.819-.431-.066.207zm8.721-8.266c-1.793 0-3.336.634-4.585 1.883s-1.883 2.798-1.883 4.603.634 3.354 1.883 4.603 2.792 1.883 4.585 1.883 3.336-.634 4.585-1.883c1.238-1.238 1.865-2.787 1.865-4.603s-.628-3.366-1.865-4.603a6.26 6.26 0 0 0-4.585-1.883zm3.226 9.809c-.872.907-1.928 1.347-3.226 1.347s-2.384-.453-3.246-1.349c-.873-.891-1.316-2.008-1.316-3.321s.443-2.432 1.318-3.34c.86-.894 1.952-1.347 3.244-1.347 1.299 0 2.354.441 3.226 1.347s1.318 2.033 1.318 3.34c0 1.313-.443 2.43-1.316 3.321l-.002.001zm5.777-9.575h-1.889v12.506h8.788v-1.763h-6.899zm9.45 0h-1.889v12.506h8.788v-1.763h-6.899zm9.45 7.098h6.827v-1.745h-6.827V60.87h7.348v-1.745h-9.237v12.506h9.255v-1.763h-7.366zm20.438-1.673h-7.11v1.763h5.283c-.172 1.071-.62 1.933-1.364 2.63-.795.745-1.805 1.122-3.001 1.122a4.44 4.44 0 0 1-3.283-1.368c-.909-.909-1.351-1.995-1.351-3.319 0-1.308.443-2.432 1.318-3.34.86-.894 1.952-1.347 3.244-1.347 1.913 0 3.402.879 4.191 2.474l.092.186 1.702-.599-.09-.227c-.889-2.241-3.148-3.633-5.895-3.633-1.793 0-3.336.634-4.585 1.883s-1.883 2.798-1.883 4.603.634 3.354 1.883 4.603 2.804 1.883 4.621 1.883c1.831 0 3.352-.629 4.517-1.869 1.164-1.219 1.754-2.766 1.754-4.599l-.019-.637-.023-.209zm2.594 1.673h6.827v-1.745h-6.827V60.87h7.348v-1.745h-9.237v12.506h9.255v-1.763h-7.366zm14.441-1.523l-2.63-.594c-1.139-.221-1.624-.689-1.624-1.566 0-1.16 1.003-1.939 2.496-1.939 1.535 0 2.644.842 2.895 2.197l.044.24 1.882-.429-.046-.225c-.442-2.155-2.258-3.493-4.739-3.493-1.33 0-2.419.338-3.236 1.003-.845.672-1.274 1.575-1.274 2.681 0 1.733 1.035 2.843 3.077 3.301l2.712.593c1.327.293 1.774.711 1.774 1.657 0 1.24-1.032 2.011-2.694 2.011-1.813 0-3.043-.913-3.29-2.443l-.039-.242-1.945.398.028.216c.153 1.189.719 2.126 1.677 2.783.935.673 2.093 1.014 3.443 1.014 1.408 0 2.551-.344 3.398-1.022.869-.695 1.31-1.633 1.31-2.788 0-1.772-1.084-2.901-3.219-3.355zM62.565 48.083l-.034.019v-5.446l-4.641 2.676-.026.016v-5.474l-4.668 2.694v-5.395l-6.518 3.759v14.511l-.01.005-13.073 7.542-13.08-7.547V40.94l-6.518-3.759v5.388l-.031-.018-4.637-2.676v5.474l-.037-.021-4.629-2.672v5.446l-.043-.026L0 45.411v26.208l33.596 19.395.002.002 33.599-19.397V45.411l-4.631 2.672zm-4.7-.575l.026-.014v-.002l2.776-1.6v20.903L34.53 81.852v-4.299l23.335-13.501V47.508zm-4.668-2.781l.019-.011L56 43.111v19.863L34.53 75.393v-4.335l18.667-10.749V44.726zm-4.66 11.806l.008-.005V42.016l2.788-1.608v18.818L34.53 68.901v-4.288l14.007-8.081zM32.666 88.318l-.008-.005L1.864 70.547V48.645l2.8 1.614v17.618l27.993 16.127.008.005v4.309zm0-6.466l-.008-.005L6.529 66.795V45.891l2.802 1.616v16.546l23.327 13.495.008.005v4.299zm0-6.46l-.008-.005-21.462-12.415V43.11L14 44.726v15.583l18.659 10.744.008.005v4.335zm0-6.492l-.008-.005-16.795-9.669V40.408l2.788 1.608v14.511l14.007 8.081.008.005v4.288zm1.864 19.418V84.01l28.001-16.132V50.26l.034-.019 2.767-1.595v21.902L34.53 88.318zM20.51 22.402l.006-.003 2.797-1.644.018-.01v31.97l10.266 5.928 10.267-5.928v-31.97l.014.008 2.8 1.645.005.003V38.78l1.861-1.075v-16.37l-6.547-3.849v34.147l-7.467 4.312v.002h-.002v-4.37l.002-.002 4.666-2.694V15.844l-1.861-1.094v-.002l-.005-.002v33.053l-2.8 1.616v.002h-.002V.548L33.597 0l-.931.548v48.869l-.003-.002-2.799-1.616V14.747l-.006.003-1.859 1.092V48.88l4.665 2.694.003.002v4.37l-.003-.002-7.465-4.312V17.486l-.014.01-6.532 3.84v16.306l1.859 1.075z"/></svg>