<svg xmlns="http://www.w3.org/2000/svg" viewBox="0 0 1326.7 679.052" xmlns:v="https://vecta.io/nano"><path d="M716.397 334.665c-6.384-5.642-14.514-8.385-24.852-8.385H649.11v96.833h14.625v-35.332h27.81c10.399 0 18.534-2.793 24.868-8.538 6.211-5.62 9.361-13.092 9.361-22.212 0-9.065-3.143-16.58-9.376-22.366zm-24.852 39.605h-27.81v-34.478h27.81c11.993 0 19.743 6.767 19.743 17.24s-7.75 17.238-19.743 17.238zm105.709 6.269c0 9.196-2.422 16.607-7.198 22.028-4.828 5.482-10.98 8.147-18.805 8.147-8.013 0-14.255-2.665-19.083-8.147-4.869-5.526-7.337-12.937-7.337-22.028V326.28h-14.624v54.259c0 13.118 3.813 23.878 11.312 31.954 7.381 8.247 17.383 12.428 29.731 12.428 12.255 0 22.212-4.181 29.581-12.417 7.33-8.048 11.045-18.803 11.045-31.965V326.28h-14.624v54.259zm93.616 17.282l-58.244-71.541h-12.141v96.833h14.625v-70.751l58.25 70.751h12.135V326.28H890.87zm92.941-71.541h-49.539v13.511h34.914v47.563c0 7.018-1.99 12.675-6.081 17.296-3.945 4.455-9.051 6.62-15.609 6.62-11.979 0-20.093-7.776-21.704-20.801l-.247-1.994-14.033 3.181.245 1.666c2.827 19.195 16.856 31.598 35.739 31.598 10.76 0 19.625-3.558 26.364-10.589 6.603-7.043 9.951-16.119 9.951-26.977V326.28zm39.987 0l-43.357 96.833h15.813l10.433-23.647h46.734l10.433 23.647h15.813l-43.357-96.833h-12.511zm23.715 59.674h-34.909l17.514-39.708 17.395 39.708zm98.194-12.521c6.874-3.567 11.566-11.616 11.566-20.854 0-15.976-11.579-26.299-29.498-26.299h-44.661v96.833h46.469c18.968 0 30.751-10.397 30.751-27.134 0-10.731-5.682-19.193-14.626-22.546zm-18.072-5.424h-29.897v-28.635h29.062c10.118 0 16.404 5.273 16.404 13.761 0 9.035-6.111 14.874-15.569 14.874zm-29.897 12.538h31.009c10.218 0 16.822 5.675 16.822 14.458 0 9.26-6.499 15.012-16.961 15.012h-30.87v-29.471zM728.063 494.316c-4.596 14.315-16.286 22.525-32.071 22.525-9.918 0-18.369-3.556-25.131-10.584-6.952-7.085-10.33-15.495-10.33-25.713 0-10.167 3.476-18.865 10.342-25.864 6.661-6.922 15.111-10.432 25.119-10.432 15.758 0 27.745 8.361 32.064 22.366l.526 1.707 14.073-4.074-.556-1.773c-3.029-9.66-8.731-17.556-16.978-23.487-8.338-5.751-18.14-8.667-29.131-8.667-13.977 0-25.969 4.906-35.643 14.581s-14.582 21.667-14.582 35.643 4.906 25.968 14.582 35.644 21.667 14.581 35.643 14.581c11.206 0 21.018-2.97 29.16-8.827 8.242-5.928 13.946-14.017 16.955-24.044l.554-1.847-14.084-3.336-.514 1.601zm67.528-63.996c-13.884 0-25.83 4.906-35.504 14.581s-14.582 21.667-14.582 35.643 4.906 25.968 14.582 35.644 21.621 14.581 35.504 14.581 25.829-4.906 35.504-14.581c9.583-9.584 14.443-21.576 14.443-35.644s-4.86-26.06-14.443-35.643c-9.674-9.675-21.62-14.581-35.504-14.581zm24.981 75.95c-6.755 7.019-14.926 10.431-24.981 10.431-10.008 0-18.459-3.509-25.132-10.443-6.762-6.896-10.19-15.547-10.19-25.714 0-10.126 3.432-18.828 10.202-25.864 6.662-6.922 15.114-10.432 25.12-10.432 10.054 0 18.225 3.413 24.981 10.432 6.77 7.036 10.202 15.738 10.202 25.864 0 10.166-3.428 18.818-10.19 25.714l-.012.012zm44.721-74.142h-14.625v96.833h68.04v-13.65h-53.415zm73.169 0h-14.625v96.833h68.04v-13.65h-53.415zm73.17 54.963h52.858V473.58h-52.858v-27.94h56.892v-13.511h-71.517v96.833h71.656v-13.65h-57.031zm158.247-12.954h-55.052v13.65h40.906c-1.332 8.291-4.8 14.969-10.563 20.363-6.159 5.766-13.978 8.69-23.239 8.69-9.97 0-18.519-3.561-25.422-10.596-7.036-7.037-10.457-15.443-10.457-25.701 0-10.126 3.432-18.828 10.202-25.864 6.662-6.922 15.113-10.432 25.12-10.432 14.814 0 26.338 6.804 32.451 19.158l.714 1.443 13.178-4.639-.697-1.757c-6.884-17.353-24.374-28.133-45.645-28.133-13.884 0-25.83 4.906-35.504 14.581s-14.582 21.667-14.582 35.643 4.906 25.968 14.582 35.644 21.715 14.581 35.782 14.581c14.18 0 25.952-4.873 34.977-14.473 9.01-9.438 13.579-21.42 13.579-35.612 0-1.999 0-3.579-.15-4.93l-.179-1.617zm20.084 12.954h52.858V473.58h-52.858v-27.94h56.892v-13.511h-71.517v96.833h71.656v-13.65h-57.031zm111.813-11.797l-20.363-4.602c-8.816-1.711-12.577-5.337-12.577-12.126 0-8.98 7.766-15.014 19.325-15.014 11.883 0 20.472 6.519 22.416 17.014l.345 1.862 14.57-3.319-.358-1.743c-3.426-16.683-17.487-27.046-36.695-27.046-10.295 0-18.729 2.618-25.056 7.768-6.546 5.207-9.866 12.191-9.866 20.757 0 13.416 8.012 22.015 23.823 25.562l21.001 4.59c10.271 2.267 13.737 5.505 13.737 12.83 0 9.604-7.991 15.569-20.856 15.569-14.036 0-23.558-7.072-25.469-18.919l-.302-1.872-15.056 3.084.216 1.675c1.188 9.204 5.567 16.463 12.981 21.551 7.239 5.211 16.208 7.853 26.657 7.853 10.899 0 19.752-2.661 26.313-7.909 6.729-5.382 10.14-12.646 10.14-21.589 0-13.725-8.393-22.466-24.925-25.977z" fill="#2d2b6f"/><path d="M158.805 147.793l.05-.025 21.658-12.725.137-.075v247.533l14.447 8.346 57.826 33.385.624.362 6.587 3.805 7.224-4.167.012-.012 57.813-33.373 12.064-6.962 2.383-1.385V134.968l.112.062 21.683 12.738.038.025V274.61l14.41-8.322V139.534l-14.41-8.471-21.72-12.763-.112-.075-14.447-8.496v264.388l-57.813 33.385v.012h-.012V373.68l.012-.012 21.72-12.526 14.41-8.334V97.016l-6.612-3.892-7.797-4.579v-.013l-.038-.013v255.917L267.37 356.95v.012h-.012V4.242L260.134 0l-7.211 4.242v352.721l-.025-.012-21.67-12.513V88.52l-.05.025-14.397 8.459v255.805l14.447 8.346 21.67 12.513.025.012v33.834l-.025-.012-57.801-33.385V109.729l-.112.075-14.472 8.496-21.708 12.763-14.397 8.471v126.255l14.397 8.321V147.793z" fill="#df3b28"/><path d="M484.424 346.633l-.262.15v-42.168l-35.93 20.723-.2.125v-42.38l-14.435 8.334-21.708 12.526v-41.769l-36.017 20.772-14.447 8.334v112.358l-.075.037-93.993 54.232-7.224 4.167-7.211-4.167-94.068-54.27V291.327l-50.465-29.106v41.719l-.237-.137-21.471-12.389-14.434-8.334v42.38l-.287-.162-21.408-12.363-14.435-8.322v42.168l-.337-.2-21.346-12.314L0 325.948v202.919l14.435 8.322L252.86 674.847l.062.037 7.199 4.155.012.013 7.224-4.167 26.361-15.22 212.127-122.475 14.435-8.322V325.948l-35.856 20.685zm-36.392-4.454l.2-.112v-.012l21.496-12.388v161.849L267.357 608.101v-33.285l180.675-104.535V342.179zm-36.143-21.533l.15-.087 21.558-12.426v153.79l-166.241 96.164v-33.56l144.532-83.226V320.646zM361.35 420.39l14.459-8.334.063-.037V299.661l21.583-12.451v145.705l-25.288 14.559-104.81 60.346v-33.198l93.993-54.232zM252.923 658.167l-.062-.037L14.435 520.571V350.987l21.683 12.501v136.411l14.435 8.321L252.86 624.769l.062.037v33.36zm0-50.066l-.062-.037L50.552 491.515V329.666l21.696 12.513v128.114l14.434 8.346 166.178 96.139.062.038v33.285zm0-50.015l-.062-.038-166.178-96.126v-153.79l21.708 12.513v120.654l14.435 8.309 130.036 74.88.062.037v33.56zm0-50.265l-.062-.038-130.036-74.867V287.21l21.583 12.451v112.358l14.447 8.334 94.005 54.233.062.037v33.198zm14.435 150.346v-33.36l131.421-75.716 70.95-40.871 14.435-8.321V363.488l.262-.15 21.421-12.351v169.584l-109.189 63.003-129.299 74.593z" fill="#2d2b6f"/></svg>